<?xml version="1.0" standalone="no"?>
<!DOCTYPE svg PUBLIC "-//W3C//DTD SVG 20010904//EN"
 "http://www.w3.org/TR/2001/REC-SVG-20010904/DTD/svg10.dtd">
<svg version="1.0" xmlns="http://www.w3.org/2000/svg"
 width="500.000000pt" height="500.000000pt" viewBox="0 0 500.000000 500.000000"
 preserveAspectRatio="xMidYMid meet">
<metadata>
Created by potrace 1.14, written by Peter Selinger 2001-2017
</metadata>
<g transform="translate(0.000000,500.000000) scale(0.100000,-0.100000)"
fill="#000000" stroke="none">
<path d="M1095 3616 c-188 -46 -353 -217 -400 -417 -70 -298 125 -600 430
-664 88 -18 132 -18 217 0 204 43 383 213 427 405 18 79 13 212 -11 285 -22
70 -53 101 -65 68 -11 -28 -65 -75 -82 -70 -14 3 -16 -15 -16 -144 0 -148 0
-149 -27 -176 -23 -22 -38 -28 -91 -31 -124 -8 -157 33 -157 198 0 111 11 144
56 177 l27 20 -37 29 c-60 48 -105 171 -80 220 8 14 14 32 14 38 0 6 9 20 21
29 20 18 20 19 2 32 -23 18 -157 18 -228 1z m175 -369 c0 -67 -3 -179 -7 -249
l-6 -128 -29 0 -28 0 0 240 0 239 27 15 c16 8 31 12 35 9 5 -2 8 -59 8 -126z
m-210 -7 c0 -17 -7 -20 -45 -20 -76 0 -85 -17 -85 -159 0 -118 0 -120 27 -141
33 -26 79 -21 106 11 15 18 17 43 17 176 l0 154 32 -3 32 -3 -3 -215 c-2 -157
-6 -221 -16 -241 -14 -27 -51 -47 -94 -51 -37 -4 -37 21 -1 33 31 11 50 41 50
79 0 16 -6 18 -60 13 -71 -7 -115 9 -134 46 -20 38 -30 208 -16 260 15 56 55
81 133 81 50 0 57 -2 57 -20z"/>
<path d="M2145 3513 c-99 -36 -163 -103 -191 -201 -38 -128 27 -268 153 -331
23 -12 50 -21 60 -21 45 -1 43 -15 -23 -133 -35 -65 -64 -122 -64 -128 0 -6
36 -9 91 -7 l92 3 89 165 c163 300 161 297 162 371 1 37 -1 70 -4 72 -3 3 -31
-1 -62 -10 l-56 -16 -4 -49 c-9 -90 -68 -143 -158 -143 -66 0 -99 18 -137 75
-67 97 15 240 138 240 l48 0 17 55 c10 30 15 57 12 60 -16 16 -116 14 -163 -2z"/>
<path d="M1424 3210 c-28 -11 -32 -23 -40 -122 -8 -110 5 -161 47 -178 39 -17
79 -4 96 30 16 31 17 186 2 229 -15 44 -58 60 -105 41z"/>
<path d="M2231 2592 c-1 -70 11 -84 55 -64 17 8 24 20 24 40 0 34 -16 52 -46
52 -13 0 -24 7 -27 18 -3 9 -5 -11 -6 -46z m57 -20 c3 -28 0 -32 -22 -32 -22
0 -26 5 -26 29 0 51 43 53 48 3z"/>
<path d="M2393 2590 c0 -36 2 -50 4 -32 2 17 2 47 0 65 -2 17 -4 3 -4 -33z"/>
<path d="M1956 2613 c-10 -10 -7 -83 3 -83 6 0 11 17 13 38 2 25 8 37 18 37
10 0 16 -12 18 -37 2 -21 7 -38 12 -38 5 0 10 17 12 38 2 25 8 37 18 37 10 0
16 -12 18 -37 2 -21 7 -38 13 -38 14 0 11 66 -3 77 -14 11 -112 15 -122 6z"/>
<path d="M2133 2612 c-25 -16 -20 -78 7 -87 30 -10 60 12 60 43 0 44 -34 65
-67 44z m47 -21 c14 -27 2 -53 -24 -49 -24 4 -33 33 -16 53 17 20 27 19 40 -4z"/>
<path d="M2343 2575 c0 -27 2 -38 4 -22 2 15 2 37 0 50 -2 12 -4 0 -4 -28z"/>
<path d="M2442 2608 c-22 -22 -14 -67 13 -80 19 -9 28 -9 37 0 9 9 6 12 -15
12 -17 0 -27 5 -27 15 0 10 10 15 30 15 18 0 30 5 30 13 0 18 -21 37 -40 37
-9 0 -21 -5 -28 -12z m46 -16 c2 -7 -6 -12 -17 -12 -21 0 -27 11 -14 24 9 9
26 2 31 -12z"/>
<path d="M1800 2350 c-205 -43 -367 -131 -537 -293 -122 -117 -213 -254 -213
-323 0 -56 57 -122 126 -144 75 -25 187 18 327 124 136 104 232 164 350 222
171 83 241 83 287 2 34 -60 38 -147 10 -227 -56 -167 -261 -389 -465 -506
-119 -68 -185 -69 -185 -4 0 39 38 92 105 147 57 46 100 102 110 143 14 59
-74 97 -160 69 -80 -26 -162 -142 -183 -258 -12 -67 -1 -117 33 -151 23 -23
33 -26 98 -25 164 2 406 134 598 325 151 151 236 318 246 481 15 243 -75 372
-294 422 -89 20 -144 19 -253 -4z"/>
<path d="M2830 1840 c-23 -23 -25 -40 -7 -62 20 -25 56 -29 78 -7 24 24 24 44
-1 69 -11 11 -27 20 -35 20 -8 0 -24 -9 -35 -20z"/>
<path d="M3213 1813 c-20 -7 -18 -352 2 -398 15 -37 46 -55 96 -55 24 0 29 4
29 23 0 16 -9 28 -25 35 -25 11 -25 14 -25 127 l0 115 25 0 c21 0 25 5 25 30
0 25 -4 30 -25 30 -23 0 -25 3 -25 50 0 50 0 50 -32 49 -18 0 -39 -3 -45 -6z"/>
<path d="M3707 1813 c-11 -10 -8 -392 3 -412 9 -17 67 -48 73 -40 2 2 1 106
-1 232 l-4 227 -32 0 c-18 0 -36 -3 -39 -7z"/>
<path d="M3052 1715 c-18 -8 -47 -24 -63 -35 l-29 -21 0 -150 0 -150 43 3 42
3 5 140 5 140 47 9 c34 7 49 15 57 33 6 14 9 29 6 34 -9 14 -76 10 -113 -6z"/>
<path d="M3476 1720 c-81 -26 -126 -121 -104 -223 12 -59 56 -111 105 -128 39
-13 114 -7 155 12 23 10 25 14 15 36 -7 16 -16 22 -26 17 -29 -11 -89 -17
-116 -10 -17 4 -31 18 -41 41 -26 63 -25 64 89 67 l102 3 -3 44 c-7 112 -81
171 -176 141z m76 -77 c10 -9 18 -24 18 -35 0 -15 -8 -18 -55 -18 -60 0 -67 9
-39 48 18 26 50 28 76 5z"/>
<path d="M2548 1704 c-16 -8 -28 -21 -28 -28 0 -21 23 -34 45 -25 31 12 100
10 113 -3 7 -7 12 -22 12 -34 0 -20 -4 -22 -33 -17 -81 13 -165 -41 -173 -113
-6 -53 12 -85 66 -112 55 -29 112 -24 177 13 l43 26 0 120 0 121 -34 34 c-32
32 -38 34 -97 34 -37 -1 -76 -7 -91 -16z m142 -224 c0 -45 -3 -52 -26 -60 -32
-13 -72 -3 -84 20 -27 50 3 90 67 90 l43 0 0 -50z"/>
<path d="M2833 1703 c-10 -3 -13 -48 -13 -174 l0 -169 45 0 45 0 0 175 0 175
-32 -1 c-18 0 -39 -3 -45 -6z"/>
</g>
</svg>
